<?xml version="1.0" standalone="no"?>
<!DOCTYPE svg PUBLIC "-//W3C//DTD SVG 20010904//EN"
 "http://www.w3.org/TR/2001/REC-SVG-20010904/DTD/svg10.dtd">
<svg version="1.0" xmlns="http://www.w3.org/2000/svg"
 width="192.000000pt" height="192.000000pt" viewBox="0 0 192.000000 192.000000"
 preserveAspectRatio="xMidYMid meet">
<metadata>
Created by potrace 1.11, written by Peter Selinger 2001-2013
</metadata>
<g transform="translate(0.000000,192.000000) scale(0.100000,-0.100000)"
fill="#000000" stroke="none">
<path d="M887 1433 c-4 -3 -7 -16 -7 -29 0 -12 -5 -24 -11 -26 -5 -2 -13 -22
-16 -46 -3 -23 -9 -42 -14 -42 -4 0 -7 -12 -7 -27 1 -16 1 -83 0 -151 l-2
-123 -82 6 c-46 3 -105 6 -133 7 -27 0 -60 5 -72 9 -13 5 -33 5 -45 0 -18 -6
-9 -11 45 -21 37 -8 64 -17 59 -22 -4 -4 -23 -3 -42 2 -72 19 -230 37 -230 25
0 -2 15 -9 32 -14 28 -9 29 -10 8 -10 -52 2 -54 0 -35 -21 9 -10 20 -19 24
-18 19 2 31 -3 26 -12 -4 -7 -12 -7 -25 0 -10 5 -28 10 -39 10 -10 0 -21 6
-24 13 -2 6 -8 9 -12 4 -5 -4 0 -13 10 -21 10 -7 15 -18 12 -24 -4 -5 7 -15
26 -22 32 -12 32 -12 7 -19 -14 -4 -41 -4 -60 0 -38 9 -77 6 -72 -4 8 -21 48
-57 63 -57 13 0 16 -5 12 -17 -5 -13 -2 -15 11 -10 10 4 22 7 28 7 6 0 8 9 5
20 -4 16 1 21 30 26 19 4 58 3 86 0 156 -21 200 -25 282 -26 50 0 96 -4 102
-8 10 -6 11 -30 6 -93 -3 -46 -5 -100 -5 -119 1 -19 -1 -46 -4 -60 -6 -23 -7
-24 -14 -5 -8 18 -9 17 -9 -7 -1 -21 4 -28 18 -28 11 0 22 -6 24 -12 4 -10 6
-10 6 0 1 6 6 12 12 12 5 0 7 -5 4 -10 -3 -6 -1 -10 4 -10 6 0 11 -7 11 -15 0
-23 18 -18 23 8 4 22 4 22 6 -2 1 -16 6 -21 15 -18 15 6 26 -12 26 -45 0 -25
24 -18 28 8 2 10 7 28 12 39 5 11 14 31 19 46 7 20 20 28 62 37 29 7 77 20
106 28 54 16 54 16 36 36 -10 11 -50 47 -90 79 l-71 59 -7 -58 c-12 -102 -22
-87 -17 25 2 59 6 109 7 111 2 2 79 10 171 17 93 8 185 17 204 20 19 2 71 1
115 -4 44 -4 67 -9 52 -10 -16 0 -36 -5 -46 -10 -10 -6 -45 -11 -79 -12 -36
-1 -59 -6 -55 -12 3 -6 37 -7 81 -4 58 4 80 2 98 -10 22 -14 24 -14 33 9 5 14
20 32 34 41 14 9 36 39 50 67 21 43 24 56 15 76 -6 13 -17 24 -25 24 -20 0
-16 14 12 40 l24 23 -20 29 c-11 15 -25 25 -31 22 -6 -4 -8 2 -3 17 4 13 14
29 23 34 38 24 92 87 92 108 0 52 -43 74 -89 46 -17 -10 -31 -14 -31 -9 0 6 5
10 10 10 15 0 12 12 -10 40 -15 20 -21 23 -31 13 -18 -18 -30 -16 -23 2 4 8 3
15 0 15 -10 0 -45 -38 -39 -43 2 -3 -1 -15 -7 -27 -6 -12 -14 -19 -17 -16 -3
3 0 13 8 23 13 17 13 17 -11 0 -14 -9 -32 -20 -40 -24 -8 -4 -19 -13 -23 -20
-6 -10 -12 -11 -22 -3 -9 8 -14 7 -19 -5 -3 -8 -17 -15 -32 -15 -14 0 -41 -7
-60 -16 -42 -20 -54 -12 -28 17 l19 22 -32 -17 c-42 -21 -45 -2 -5 32 15 13 3
7 -27 -13 -55 -38 -114 -55 -125 -37 -4 7 -17 7 -41 -1 -33 -10 -35 -13 -35
-55 l0 -44 43 33 42 32 -46 -49 c-37 -39 -47 -56 -47 -86 -2 -58 30 -51 106
23 34 34 62 57 62 50 0 -6 -9 -16 -20 -23 -11 -7 -20 -17 -20 -21 0 -5 -12
-24 -27 -44 l-27 -36 29 7 c45 9 316 14 350 6 28 -7 27 -8 -12 -9 -23 0 -43
-6 -45 -11 -7 -23 -393 -42 -426 -22 -15 10 -15 120 0 191 9 46 3 65 -13 41
-10 -17 -5 111 6 132 4 7 -3 2 -15 -12 -13 -14 -21 -18 -19 -10 3 19 -10 50
-21 50 -5 0 -11 -10 -13 -22 -4 -20 -4 -19 -6 4 -1 20 -5 26 -16 22 -11 -5
-17 3 -21 25 -6 30 -14 38 -27 24z m768 -473 c-3 -5 -11 -10 -16 -10 -6 0 -7
5 -4 10 3 6 11 10 16 10 6 0 7 -4 4 -10z m-1046 -126 c2 -2 -26 -4 -62 -4 -37
0 -67 4 -67 10 0 9 118 3 129 -6z m89 -11 c-10 -2 -28 -2 -40 0 -13 2 -5 4 17
4 22 1 32 -1 23 -4z"/>
<path d="M380 1330 c19 -16 54 -42 78 -57 23 -15 42 -33 42 -40 0 -7 3 -12 8
-11 4 1 22 -7 39 -18 32 -19 42 -34 23 -34 -5 0 -10 -7 -10 -16 0 -22 -32 -14
-45 12 -6 11 -16 19 -23 16 -6 -2 -12 2 -12 8 0 17 -28 41 -43 38 -8 -2 -31
17 -51 40 -37 45 -44 44 -26 -2 9 -24 8 -25 -10 -14 -11 7 -20 17 -20 23 0 5
-7 2 -14 -8 -13 -17 -15 -17 -30 5 -9 12 -16 18 -16 13 0 -6 -4 -3 -10 5 -5 8
-12 11 -16 8 -11 -11 16 -67 48 -99 36 -36 29 -55 -13 -34 -32 17 -35 14 -17
-18 17 -32 59 -66 75 -60 7 3 13 0 13 -5 0 -6 24 -15 53 -21 65 -14 273 -28
310 -21 l26 5 -44 48 c-58 62 -45 61 20 -2 27 -27 59 -51 70 -53 17 -3 20 3
23 38 3 41 1 44 -95 139 -148 146 -153 151 -153 130 0 -9 10 -25 23 -36 12
-10 17 -18 10 -19 -7 0 -29 14 -50 32 -21 18 -32 26 -25 18 16 -19 15 -30 -3
-30 -8 0 -15 6 -15 13 0 7 -9 18 -19 24 -15 10 -22 9 -31 -2 -16 -19 -37 -19
-56 0 -9 8 -23 15 -32 15 -12 0 -6 -9 18 -30z m-40 -91 c0 -6 -4 -7 -10 -4 -5
3 -10 11 -10 16 0 6 5 7 10 4 6 -3 10 -11 10 -16z m306 -74 c-20 -15 -36 -19
-36 -10 0 5 38 23 50 24 3 0 -4 -6 -14 -14z"/>
<path d="M680 1277 c0 -8 24 -35 53 -59 78 -67 77 -67 77 -8 0 50 -1 52 -24
46 -14 -3 -26 -1 -28 4 -2 6 -14 11 -28 12 -14 1 -31 6 -37 11 -9 7 -13 5 -13
-6z"/>
<path d="M520 1170 c0 -5 5 -10 11 -10 5 0 7 5 4 10 -3 6 -8 10 -11 10 -2 0
-4 -4 -4 -10z"/>
<path d="M150 910 c0 -5 5 -10 11 -10 5 0 7 5 4 10 -3 6 -8 10 -11 10 -2 0 -4
-4 -4 -10z"/>
<path d="M1338 793 c6 -2 18 -2 25 0 6 3 1 5 -13 5 -14 0 -19 -2 -12 -5z"/>
<path d="M320 762 c-5 -2 -10 -11 -10 -19 0 -13 2 -13 17 -2 15 12 16 12 10
-3 -4 -12 5 -22 39 -37 24 -12 52 -21 62 -21 10 0 22 -4 28 -9 5 -5 24 -12 41
-16 30 -6 38 -1 95 55 l63 61 -167 -3 c-92 -2 -172 -4 -178 -6z"/>
<path d="M700 745 c-13 -14 -29 -25 -36 -25 -6 0 -17 -6 -23 -13 -6 -8 -31
-24 -56 -37 -45 -23 -46 -24 -23 -36 37 -20 -1 -28 -50 -11 -23 8 -39 11 -37
7 9 -15 -20 -17 -53 -3 -18 7 -38 13 -45 12 -7 -1 -25 3 -41 10 -44 18 -54 -2
-14 -27 18 -11 44 -25 58 -31 14 -6 32 -15 40 -20 64 -38 187 -73 298 -86 49
-5 53 -4 62 20 13 34 13 35 -6 28 -12 -4 -14 0 -9 20 6 23 4 26 -31 33 -23 4
-44 2 -57 -5 -15 -10 -17 -10 -11 0 5 9 1 11 -14 7 -15 -4 -19 -2 -15 8 3 8
18 14 34 14 49 0 141 130 106 152 -23 15 -54 8 -77 -17z m-160 -145 c0 -5 -4
-10 -10 -10 -5 0 -10 5 -10 10 0 6 5 10 10 10 6 0 10 -4 10 -10z"/>
<path d="M1515 760 c-16 -4 -42 -5 -57 -2 -15 2 -35 1 -45 -3 -10 -4 -61 -6
-113 -6 l-95 1 26 -23 c14 -13 28 -28 30 -34 2 -6 23 -32 47 -57 42 -46 43
-46 72 -31 37 19 46 19 30 0 -7 -8 -9 -15 -5 -15 10 0 125 122 125 132 0 4 9
8 19 8 24 0 35 26 15 34 -9 3 -16 5 -17 5 -1 -1 -15 -5 -32 -9z"/>
<path d="M1074 748 c-7 -11 167 -188 178 -182 5 3 32 -14 61 -38 77 -64 88
-72 86 -62 -4 25 4 25 31 -1 16 -16 32 -26 35 -23 7 6 -147 164 -246 251 -64
56 -81 66 -108 64 -18 -1 -35 -5 -37 -9z"/>
<path d="M743 638 c-28 -30 -29 -38 -3 -38 22 0 34 19 28 45 -2 14 -7 13 -25
-7z"/>
</g>
</svg>
